<svg width="32" height="33" viewBox="0 0 32 33" fill="none" xmlns="http://www.w3.org/2000/svg">
<mask id="mask0_338_5304" style="mask-type:alpha" maskUnits="userSpaceOnUse" x="0" y="0" width="32" height="33">
<rect y="0.5" width="32" height="32" fill="#D9D9D9"/>
</mask>
<g mask="url(#mask0_338_5304)">
<path d="M7.80002 23.3001C8.93335 22.4334 10.2 21.7501 11.6 21.2501C13 20.7501 14.4667 20.5001 16 20.5001C17.5334 20.5001 19 20.7501 20.4 21.2501C21.8 21.7501 23.0667 22.4334 24.2 23.3001C24.9778 22.389 25.5834 21.3556 26.0167 20.2001C26.45 19.0445 26.6667 17.8112 26.6667 16.5001C26.6667 13.5445 25.6278 11.0279 23.55 8.95008C21.4722 6.8723 18.9556 5.83341 16 5.83341C13.0445 5.83341 10.5278 6.8723 8.45002 8.95008C6.37224 11.0279 5.33335 13.5445 5.33335 16.5001C5.33335 17.8112 5.55002 19.0445 5.98335 20.2001C6.41669 21.3556 7.02224 22.389 7.80002 23.3001ZM16 17.8334C14.6889 17.8334 13.5834 17.3834 12.6834 16.4834C11.7834 15.5834 11.3334 14.4779 11.3334 13.1667C11.3334 11.8556 11.7834 10.7501 12.6834 9.85008C13.5834 8.95008 14.6889 8.50008 16 8.50008C17.3111 8.50008 18.4167 8.95008 19.3167 9.85008C20.2167 10.7501 20.6667 11.8556 20.6667 13.1667C20.6667 14.4779 20.2167 15.5834 19.3167 16.4834C18.4167 17.3834 17.3111 17.8334 16 17.8334ZM16 29.8334C14.1556 29.8334 12.4222 29.4834 10.8 28.7834C9.1778 28.0834 7.76669 27.1334 6.56669 25.9334C5.36669 24.7334 4.41669 23.3223 3.71669 21.7001C3.01669 20.0779 2.66669 18.3445 2.66669 16.5001C2.66669 14.6556 3.01669 12.9223 3.71669 11.3001C4.41669 9.67786 5.36669 8.26675 6.56669 7.06675C7.76669 5.86675 9.1778 4.91675 10.8 4.21675C12.4222 3.51675 14.1556 3.16675 16 3.16675C17.8445 3.16675 19.5778 3.51675 21.2 4.21675C22.8222 4.91675 24.2334 5.86675 25.4334 7.06675C26.6334 8.26675 27.5834 9.67786 28.2834 11.3001C28.9834 12.9223 29.3334 14.6556 29.3334 16.5001C29.3334 18.3445 28.9834 20.0779 28.2834 21.7001C27.5834 23.3223 26.6334 24.7334 25.4334 25.9334C24.2334 27.1334 22.8222 28.0834 21.2 28.7834C19.5778 29.4834 17.8445 29.8334 16 29.8334ZM16 27.1667C17.1778 27.1667 18.2889 26.9945 19.3334 26.6501C20.3778 26.3056 21.3334 25.8112 22.2 25.1667C21.3334 24.5223 20.3778 24.0279 19.3334 23.6834C18.2889 23.339 17.1778 23.1667 16 23.1667C14.8222 23.1667 13.7111 23.339 12.6667 23.6834C11.6222 24.0279 10.6667 24.5223 9.80002 25.1667C10.6667 25.8112 11.6222 26.3056 12.6667 26.6501C13.7111 26.9945 14.8222 27.1667 16 27.1667ZM16 15.1667C16.5778 15.1667 17.0556 14.9779 17.4334 14.6001C17.8111 14.2223 18 13.7445 18 13.1667C18 12.589 17.8111 12.1112 17.4334 11.7334C17.0556 11.3556 16.5778 11.1667 16 11.1667C15.4222 11.1667 14.9445 11.3556 14.5667 11.7334C14.1889 12.1112 14 12.589 14 13.1667C14 13.7445 14.1889 14.2223 14.5667 14.6001C14.9445 14.9779 15.4222 15.1667 16 15.1667Z" fill="#222222"/>
</g>
</svg>
