<svg width="32" height="33" viewBox="0 0 32 33" fill="none" xmlns="http://www.w3.org/2000/svg">
<mask id="mask0_338_5303" style="mask-type:alpha" maskUnits="userSpaceOnUse" x="0" y="0" width="32" height="33">
<rect y="0.5" width="32" height="32" fill="#D9D9D9"/>
</mask>
<g mask="url(#mask0_338_5303)">
<path fill-rule="evenodd" clip-rule="evenodd" d="M12.4407 8.5C12.7207 7.91 13.3247 7.5 14.0227 7.5H18.0227C18.7207 7.5 19.3237 7.91 19.6047 8.5C20.2877 8.506 20.8207 8.537 21.2967 8.723C21.865 8.94527 22.3591 9.32301 22.7227 9.813C23.0897 10.307 23.2627 10.94 23.4987 11.811L24.2407 14.533L24.5207 15.374L24.5447 15.404C25.4457 16.558 25.0167 18.274 24.1587 21.705C23.6127 23.888 23.3407 24.979 22.5267 25.615C21.7127 26.25 20.5877 26.25 18.3377 26.25H13.7077C11.4577 26.25 10.3327 26.25 9.51874 25.615C8.70474 24.979 8.43174 23.888 7.88674 21.705C7.02874 18.274 6.59974 16.558 7.50074 15.404L7.52474 15.374L7.80474 14.533L8.54674 11.811C8.78374 10.94 8.95674 10.306 9.32274 9.812C9.68647 9.32238 10.1806 8.945 10.7487 8.723C11.2247 8.537 11.7567 8.505 12.4407 8.5ZM12.4427 10.002C11.7807 10.009 11.5147 10.034 11.2947 10.12C10.9887 10.2397 10.7225 10.4431 10.5267 10.707C10.3507 10.944 10.2467 11.275 9.95674 12.342L9.38674 14.431C10.4067 14.25 11.8007 14.25 13.7067 14.25H18.3377C20.2447 14.25 21.6377 14.25 22.6577 14.43L22.0887 12.341C21.7987 11.274 21.6947 10.943 21.5187 10.706C21.3229 10.4421 21.0568 10.2387 20.7507 10.119C20.5307 10.033 20.2647 10.008 19.6027 10.001C19.4608 10.2998 19.237 10.5523 18.9573 10.7291C18.6776 10.906 18.3536 10.9999 18.0227 11H14.0227C13.692 11 13.368 10.9062 13.0884 10.7296C12.8087 10.5529 12.5849 10.3007 12.4427 10.002Z" fill="#222222"/>
</g>
</svg>
