<svg width="24" height="24" viewBox="0 0 24 24" xmlns="http://www.w3.org/2000/svg">
<path fill-rule="evenodd" clip-rule="evenodd" d="M7.1999 2.3999C6.88164 2.3999 6.57642 2.52633 6.35137 2.75137C6.12633 2.97642 5.9999 3.28164 5.9999 3.5999V4.7999H4.7999C4.16338 4.7999 3.55293 5.05276 3.10285 5.50285C2.65276 5.95293 2.3999 6.56338 2.3999 7.1999V19.1999C2.3999 19.8364 2.65276 20.4469 3.10285 20.897C3.55293 21.347 4.16338 21.5999 4.7999 21.5999H19.1999C19.8364 21.5999 20.4469 21.347 20.897 20.897C21.347 20.4469 21.5999 19.8364 21.5999 19.1999V7.1999C21.5999 6.56338 21.347 5.95293 20.897 5.50285C20.4469 5.05276 19.8364 4.7999 19.1999 4.7999H17.9999V3.5999C17.9999 3.28164 17.8735 2.97642 17.6484 2.75137C17.4234 2.52633 17.1182 2.3999 16.7999 2.3999C16.4816 2.3999 16.1764 2.52633 15.9514 2.75137C15.7263 2.97642 15.5999 3.28164 15.5999 3.5999V4.7999H8.3999V3.5999C8.3999 3.28164 8.27347 2.97642 8.04843 2.75137C7.82339 2.52633 7.51816 2.3999 7.1999 2.3999ZM7.1999 8.3999C6.88164 8.3999 6.57642 8.52633 6.35137 8.75137C6.12633 8.97642 5.9999 9.28164 5.9999 9.5999C5.9999 9.91816 6.12633 10.2234 6.35137 10.4484C6.57642 10.6735 6.88164 10.7999 7.1999 10.7999H16.7999C17.1182 10.7999 17.4234 10.6735 17.6484 10.4484C17.8735 10.2234 17.9999 9.91816 17.9999 9.5999C17.9999 9.28164 17.8735 8.97642 17.6484 8.75137C17.4234 8.52633 17.1182 8.3999 16.7999 8.3999H7.1999Z"/>
</svg>
