<svg width="24" height="24" viewBox="0 0 24 24"  xmlns="http://www.w3.org/2000/svg">
<path fill-rule="evenodd" clip-rule="evenodd" d="M8.41779 3.25C8.69779 2.66 9.30179 2.25 9.99979 2.25H13.9998C14.6978 2.25 15.3008 2.66 15.5818 3.25C16.2648 3.256 16.7978 3.287 17.2738 3.473C17.842 3.69527 18.3362 4.07301 18.6998 4.563C19.0668 5.057 19.2398 5.69 19.4758 6.561L20.2178 9.283L20.4978 10.124L20.5218 10.154C21.4228 11.308 20.9938 13.024 20.1358 16.455C19.5898 18.638 19.3178 19.729 18.5038 20.365C17.6898 21 16.5648 21 14.3148 21H9.68479C7.43479 21 6.30979 21 5.49579 20.365C4.68179 19.729 4.40879 18.638 3.86379 16.455C3.00579 13.024 2.57679 11.308 3.47779 10.154L3.50179 10.124L3.78179 9.283L4.52379 6.561C4.76079 5.69 4.93379 5.056 5.29979 4.562C5.66352 4.07238 6.15768 3.695 6.72579 3.473C7.20179 3.287 7.73379 3.255 8.41779 3.25ZM8.41979 4.752C7.75779 4.759 7.49179 4.784 7.27179 4.87C6.96575 4.98968 6.6996 5.19311 6.50379 5.457C6.32779 5.694 6.22379 6.025 5.93379 7.092L5.36379 9.181C6.38379 9 7.77779 9 9.68379 9H14.3148C16.2218 9 17.6148 9 18.6348 9.18L18.0658 7.091C17.7758 6.024 17.6718 5.693 17.4958 5.456C17.3 5.19211 17.0338 4.98868 16.7278 4.869C16.5078 4.783 16.2418 4.758 15.5798 4.751C15.4378 5.04985 15.214 5.30232 14.9344 5.47914C14.6547 5.65596 14.3307 5.74987 13.9998 5.75H9.99979C9.66903 5.74996 9.34506 5.6562 9.06542 5.47956C8.78578 5.30293 8.56192 5.05066 8.41979 4.752Z" />
</svg>
