<svg width="24" height="24" viewBox="0 0 24 24" fill="none" xmlns="http://www.w3.org/2000/svg">
<g clip-path="url(#clip0_24_1134)">
<path d="M22 9.25V15.375C22 16.0712 21.6839 16.7389 21.1213 17.2312C20.5587 17.7234 19.7956 18 19 18H5C4.20435 18 3.44129 17.7234 2.87868 17.2312C2.31607 16.7389 2 16.0712 2 15.375V9.25H22ZM18 12.75H15C14.7348 12.75 14.4804 12.8422 14.2929 13.0063C14.1054 13.1704 14 13.3929 14 13.625C14 13.8571 14.1054 14.0796 14.2929 14.2437C14.4804 14.4078 14.7348 14.5 15 14.5H18C18.2652 14.5 18.5196 14.4078 18.7071 14.2437C18.8946 14.0796 19 13.8571 19 13.625C19 13.3929 18.8946 13.1704 18.7071 13.0063C18.5196 12.8422 18.2652 12.75 18 12.75ZM19 4C19.7956 4 20.5587 4.27656 21.1213 4.76884C21.6839 5.26113 22 5.92881 22 6.625V7.5H2V6.625C2 5.92881 2.31607 5.26113 2.87868 4.76884C3.44129 4.27656 4.20435 4 5 4H19Z" fill="black"/>
</g>
<defs>
<clipPath id="clip0_24_1134">
<rect width="24" height="24" fill="white"/>
</clipPath>
</defs>
</svg>
