<svg width="24" height="24" viewBox="0 0 24 24" fill="none" xmlns="http://www.w3.org/2000/svg">
<g clip-path="url(#clip0_50_878)">
<path fill-rule="evenodd" clip-rule="evenodd" d="M8.07896 2.6C8.24096 2.235 8.60196 2 9.00196 2H16.979C17.729 2 18.218 2.79 17.882 3.462L15.613 8H18.971C19.871 8 20.321 9.088 19.685 9.724L7.73196 21.677C6.97796 22.431 5.72196 21.655 6.05996 20.644L8.60796 13H5.00996C4.84171 13 4.67612 12.958 4.52824 12.8777C4.38036 12.7974 4.25487 12.6815 4.16317 12.5404C4.07148 12.3994 4.01647 12.2376 4.00316 12.0699C3.98986 11.9022 4.01866 11.7338 4.08696 11.58L8.07896 2.6Z" fill="black"/>
</g>
<defs>
<clipPath id="clip0_50_878">
<rect width="24" height="24" fill="white"/>
</clipPath>
</defs>
</svg>
